<svg width="837" height="196" viewBox="0 0 837 196" fill="none" xmlns="http://www.w3.org/2000/svg">
<path d="M248.238 157.565V59.3902H267.32V157.565H248.238ZM367.864 157.565V93.1293L342.698 141.111H332.051L306.885 93.1293V157.565H287.803V59.3902H308.268L337.306 115.253L366.62 59.3902H386.946V157.565H367.864ZM407.444 157.565V59.3902H449.064C453.581 59.3902 457.73 60.312 461.509 62.1557C465.289 63.9993 468.561 66.4883 471.327 69.6225C474.184 72.7568 476.397 76.2597 477.964 80.1314C479.531 84.0031 480.314 87.967 480.314 92.0231C480.314 97.5541 479.024 102.809 476.443 107.786C473.862 112.764 470.313 116.82 465.796 119.955C461.279 123.089 455.932 124.656 449.756 124.656H426.525V157.565H407.444ZM426.525 107.925H448.649C450.954 107.925 453.028 107.279 454.872 105.989C456.715 104.698 458.19 102.855 459.297 100.458C460.403 97.9689 460.956 95.1573 460.956 92.0231C460.956 88.6123 460.311 85.7085 459.02 83.3118C457.822 80.915 456.208 79.1174 454.18 77.919C452.245 76.7206 450.124 76.1215 447.82 76.1215H426.525V107.925ZM493.595 157.565V59.3902H537.014C541.531 59.3902 545.679 60.312 549.458 62.1557C553.33 63.9993 556.649 66.4883 559.414 69.6225C562.272 72.7568 564.438 76.2597 565.913 80.1314C567.48 84.0031 568.264 87.967 568.264 92.0231C568.264 96.1713 567.526 100.181 566.051 104.053C564.669 107.833 562.641 111.151 559.967 114.009C557.294 116.866 554.16 119.079 550.565 120.646L572.965 157.565H551.947L531.759 124.656H512.677V157.565H493.595ZM512.677 107.925H536.599C538.996 107.925 541.116 107.233 542.959 105.851C544.803 104.376 546.278 102.44 547.384 100.043C548.49 97.6463 549.044 94.9729 549.044 92.0231C549.044 88.8888 548.398 86.1694 547.108 83.8649C545.817 81.4681 544.158 79.5783 542.13 78.1956C540.194 76.8128 538.074 76.1215 535.769 76.1215H512.677V107.925ZM585.554 157.565V59.3902H604.636V157.565H585.554ZM644.201 94.512V157.565H625.119V59.3902H640.329L691.076 124.103V59.5285H710.158V157.565H694.256L644.201 94.512ZM804.004 76.1215H772.616V157.565H753.672V76.1215H722.284V59.3902H804.004V76.1215Z" fill="#221F20"/>
<rect width="195.59" height="195.59" rx="22.6665" fill="#221F20"/>
<rect x="35.541" y="88.9004" width="53.3426" height="88.9044" fill="white"/>
<circle cx="62.2155" cy="50.3707" r="32.5983" fill="#D9D9D9"/>
<path fill-rule="evenodd" clip-rule="evenodd" d="M112.619 82.3178C115.49 82.7449 118.461 82.969 121.504 82.969C146.054 82.969 165.956 68.3743 165.956 50.3707C165.956 32.3672 146.054 17.7725 121.504 17.7725C118.461 17.7725 115.49 17.9966 112.619 18.4237V82.3178Z" fill="#D9D9D9"/>
</svg>
